<svg width="25" height="16" viewBox="0 0 25 16" fill="none" xmlns="http://www.w3.org/2000/svg">
<path d="M15.188 6.69336C15.2627 7.08773 15.3159 7.4821 15.3159 7.99365C15.3159 12.4595 12.3209 15.625 7.8125 15.625C3.49593 15.625 0 12.1291 0 7.8125C0 3.49589 3.49593 0 7.8125 0C9.92285 0 11.6814 0.767375 13.0457 2.04639L10.9247 4.08211C10.3491 3.52787 9.33663 2.87773 7.8125 2.87773C5.14795 2.87773 2.97363 5.08398 2.97363 7.8125C2.97363 10.541 5.14795 12.7473 7.8125 12.7473C10.9034 12.7473 12.0651 10.5197 12.2463 9.37923H7.8125V6.69332H15.188V6.69336ZM22.7322 6.95528V4.6875H20.4535V6.95528H18.1857V9.23397H20.4535V11.5017H22.7322V9.23397H25V6.95528H22.7322Z" fill="white"/>
</svg>
