<svg width="22" height="18" viewBox="0 0 22 18" fill="none" xmlns="http://www.w3.org/2000/svg">
<path d="M19.7386 4.45304C19.7526 4.64846 19.7526 4.84393 19.7526 5.03935C19.7526 11 15.2158 17.8681 6.92388 17.8681C4.36929 17.8681 1.99621 17.1282 0 15.844C0.362958 15.8858 0.711909 15.8998 1.08883 15.8998C3.19667 15.8998 5.13706 15.1879 6.68656 13.9734C4.70432 13.9315 3.04314 12.6333 2.4708 10.8465C2.75001 10.8883 3.02918 10.9163 3.32236 10.9163C3.72717 10.9163 4.13202 10.8604 4.5089 10.7627C2.44291 10.3439 0.893367 8.5292 0.893367 6.33757V6.28175C1.4936 6.61678 2.19163 6.82617 2.93143 6.85406C1.71695 6.04439 0.921297 4.66243 0.921297 3.09896C0.921297 2.26141 1.14461 1.49364 1.53549 0.823585C3.75505 3.55963 7.09138 5.34641 10.8325 5.54187C10.7627 5.20684 10.7208 4.85789 10.7208 4.5089C10.7208 2.02409 12.731 0 15.2297 0C16.5279 0 17.7005 0.544416 18.5241 1.42386C19.5431 1.22844 20.5203 0.851515 21.3858 0.335029C21.0507 1.38201 20.3388 2.26145 19.4036 2.81979C20.3109 2.72212 21.1904 2.4708 22 2.12185C21.3859 3.01521 20.6181 3.81087 19.7386 4.45304Z" fill="white"/>
</svg>
